<svg width="740" height="221" viewBox="0 0 740 221" fill="none" xmlns="http://www.w3.org/2000/svg">
<g clip-path="url(#clip0_888_613)">
<path d="M113.689 152.188L112.749 152.27H111.825L107.834 146.662V146.761L111.232 193.922H123.981C123.981 193.922 124.954 177.032 125.729 164.372L125.779 164.422C125.779 163.88 125.812 163.339 125.828 162.798C126.125 157.829 126.339 153.664 126.455 151.713L113.722 152.221L113.689 152.188Z" fill="#EF6A22"/>
<path d="M201.218 144.53V183.64V193.857V193.906H214.676L216.557 180.213L216.59 180.049L220.746 150.319H205.16L201.218 144.53Z" fill="#EF6A22"/>
<path d="M247.927 54.0439H247.91L247.762 53.9128H124.212V54.0439L90.6648 46.1891L93.3037 41.9748V32.6441L89.3948 28.4133L83.3584 34.7923L82.2533 35.9402L73.4295 26.8555H51.7245C56.4745 31.0698 63.8635 37.2848 63.9954 37.416C64.1274 37.5472 36.5673 59.0782 23.2244 69.3764C25.9457 73.5908 31.4215 82.5935 31.4215 82.5935L67.7394 87.2342L79.8783 88.7593L83.3254 89.2184L76.9095 91.793L82.2533 99.861L113.854 147.531L129.82 146.727L131.733 155.173L131.766 155.287C131.766 155.287 131.749 155.287 131.733 155.287L135.971 175.047L136.004 175.08L140.21 193.922H152.267V193.84H152.514V191.183L152.349 191.019L153.157 145.071V133.018L156.505 141.103L157.99 144.776L158.303 144.743L158.369 144.907L169.156 143.677L169.255 143.497L169.106 143.759L215.963 138.364L233.067 155.878C233.957 168.537 234.815 181.213 235.705 193.873H236.085C236.085 193.922 236.085 193.955 236.085 194.004H249.296C251.621 166.815 253.98 139.66 256.371 112.553V112.389V112.258L258.153 91.7766C258.4 88.6117 258.713 85.4468 258.961 82.2327C257.311 79.8058 255.679 77.3788 254.062 74.9027L260.989 79.4778V94.3839L261.204 112.078L261.633 143.153C261.633 143.153 261.765 143.021 261.847 142.956V143.333C263.843 141.398 265.805 139.447 267.752 137.462V70.8195L247.877 54.0603L247.927 54.0439ZM152.91 145.301C152.91 145.301 153.075 145.153 153.157 145.088C153.075 145.153 152.992 145.235 152.91 145.301Z" fill="#EF6A22"/>
</g>
<path d="M533.83 78.5444H519.935L505.198 122.045L490.418 78.5444H479.222L464.176 121.824L449.661 78.5444H435.323L457.715 144.924L457.892 145.41H469.752L484.577 102.485L499.18 144.924L499.357 145.41H511.305L533.52 79.518L533.83 78.5444Z" fill="black"/>
<path d="M551.356 132.533V78.5444H537.593V145.41H579.058L584.944 132.533H551.356Z" fill="black"/>
<path d="M701.637 122.93C705.267 120.969 708.276 118.031 710.325 114.45C712.374 110.869 713.38 106.786 713.231 102.662C713.231 87.7933 702.522 78.5444 685.219 78.5444H659.242V145.41H673.005V126.559H685.219C686.237 126.559 687.21 126.559 688.184 126.559L701.46 145.499H717.523L701.637 122.93ZM699.512 102.662C699.512 110.141 694.777 113.77 685.086 113.77H673.005V91.6432H685.086C694.777 91.4662 699.512 95.095 699.512 102.662Z" fill="black"/>
<path d="M405.938 77.4807C399.113 77.4895 392.444 79.5213 386.774 83.3194C381.103 87.1175 376.686 92.5114 374.08 98.8194C371.475 105.127 370.797 112.066 372.134 118.759C373.471 125.452 376.762 131.598 381.591 136.421C386.42 141.244 392.57 144.527 399.265 145.855C405.959 147.183 412.897 146.497 419.202 143.883C425.507 141.269 430.895 136.845 434.686 131.17C438.477 125.495 440.5 118.823 440.5 111.998C440.488 102.839 436.842 94.0598 430.361 87.5879C423.881 81.1159 415.097 77.4807 405.938 77.4807ZM427.18 111.998C427.188 116.201 425.95 120.312 423.621 123.811C421.293 127.31 417.978 130.039 414.098 131.654C410.217 133.268 405.945 133.695 401.822 132.881C397.698 132.066 393.909 130.047 390.934 127.078C387.959 124.109 385.932 120.324 385.109 116.202C384.285 112.081 384.703 107.808 386.31 103.924C387.916 100.04 390.639 96.7197 394.133 94.3837C397.627 92.0477 401.735 90.8008 405.938 90.8008C411.564 90.8008 416.96 93.0326 420.943 97.0066C424.925 100.981 427.168 106.372 427.18 111.998Z" fill="black"/>
<path d="M368.767 133.24L371.113 130.32L363.59 124.345L360.536 122.266L358.235 125.142C356.247 127.656 353.715 129.688 350.829 131.085C347.944 132.482 344.78 133.208 341.574 133.208C338.368 133.208 335.204 132.482 332.319 131.085C329.433 129.688 326.901 127.656 324.913 125.142C321.952 121.359 320.389 116.669 320.488 111.866C320.499 106.229 322.747 100.826 326.738 96.8435C330.728 92.8613 336.136 90.6248 341.773 90.6248C345.014 90.6395 348.208 91.3923 351.114 92.8262C354.021 94.2601 356.562 96.3373 358.545 98.9001L360.89 101.821L368.369 95.8466L371.113 93.3242L368.812 90.4478C365.58 86.3667 361.467 83.0695 356.781 80.8028C352.095 78.5361 346.957 77.3586 341.751 77.3586C336.545 77.3586 331.407 78.5361 326.721 80.8028C322.035 83.0695 317.922 86.3667 314.691 90.4478C309.851 96.538 307.217 104.087 307.217 111.866C307.217 119.645 309.851 127.194 314.691 133.284C317.916 137.397 322.034 140.723 326.733 143.01C331.433 145.297 336.591 146.485 341.817 146.485C347.044 146.485 352.202 145.297 356.902 143.01C361.601 140.723 365.719 137.397 368.944 133.284L368.767 133.24Z" fill="black"/>
<path d="M625.079 78.5444H614.06L583.482 145.41H598.262L605.387 129.568H620.079H621.539H629.239L623.619 117H621.539H620.079H611.007L619.503 97.9714L640.789 145.41H655.614L625.256 78.987L625.079 78.5444Z" fill="black"/>
<path d="M317.687 168.463H307.216V193.806H317.687C325.689 193.806 331.297 188.66 331.297 181.122C331.297 173.583 325.637 168.463 317.687 168.463ZM317.558 190.461H310.92V171.808H317.558C323.579 171.808 327.618 175.539 327.618 181.122C327.642 182.417 327.392 183.703 326.885 184.895C326.378 186.087 325.625 187.159 324.676 188.04C323.726 188.921 322.602 189.593 321.375 190.01C320.149 190.427 318.848 190.581 317.558 190.461Z" fill="black"/>
<path d="M344.498 182.588H357.079V179.295H344.498V171.808H358.597V168.463H340.793V193.806H359.137V190.461H344.498V182.588Z" fill="black"/>
<path d="M377.096 179.552C373.726 178.729 370.818 178.034 370.818 175.384C370.818 172.734 373.005 171.551 376.684 171.551C378.951 171.579 381.163 172.248 383.065 173.48L383.631 173.841L384.918 170.753L384.557 170.496C382.207 168.999 379.471 168.221 376.684 168.258C369.661 168.258 367.165 171.988 367.165 175.462C367.165 180.607 371.796 181.842 375.913 182.846C379.257 183.643 382.139 184.338 382.139 186.988C382.139 189.638 379.952 190.693 376.17 190.693C373.341 190.759 370.589 189.768 368.451 187.914L367.911 187.4L366.367 190.41L366.65 190.693C369.267 192.949 372.639 194.135 376.093 194.012C383.194 194.012 385.715 190.153 385.715 186.834C385.818 181.662 381.187 180.556 377.096 179.552Z" fill="black"/>
<path d="M398.861 168.463H395.156V193.806H398.861V168.463Z" fill="black"/>
<path d="M421.888 171.653C423.16 171.59 424.431 171.786 425.625 172.228C426.819 172.67 427.911 173.35 428.835 174.226L429.247 174.638L431.614 172.22L431.253 171.834C430.022 170.589 428.543 169.619 426.912 168.985C425.28 168.351 423.533 168.068 421.785 168.154C418.373 168.154 415.101 169.51 412.689 171.922C410.276 174.335 408.921 177.607 408.921 181.019C408.921 184.43 410.276 187.703 412.689 190.115C415.101 192.528 418.373 193.883 421.785 193.883C425.166 193.997 428.478 192.902 431.125 190.795L431.305 190.615V180.581H427.703V188.994C425.982 190.106 423.961 190.663 421.914 190.59C419.403 190.59 416.995 189.592 415.219 187.817C413.443 186.041 412.446 183.633 412.446 181.122C412.446 178.61 413.443 176.202 415.219 174.427C416.995 172.651 419.403 171.653 421.914 171.653H421.888Z" fill="black"/>
<path d="M460.069 187.065L445.378 168.669L445.224 168.463H442.265V193.806H445.97V175.204L460.764 193.806H463.722V168.463H460.069V187.065Z" fill="black"/>
<path d="M497.556 179.553C494.186 178.729 491.278 178.035 491.278 175.385C491.278 172.735 493.491 171.551 497.145 171.551C499.411 171.577 501.624 172.246 503.525 173.481L504.091 173.841L505.403 170.754L505.017 170.496C502.669 168.995 499.931 168.217 497.145 168.258C490.121 168.258 487.625 171.989 487.625 175.462C487.625 180.608 492.282 181.843 496.373 182.846C499.717 183.644 502.599 184.338 502.599 186.988C502.599 189.638 500.438 190.693 496.63 190.693C493.802 190.755 491.051 189.764 488.911 187.914L488.371 187.4L486.827 190.41L487.11 190.693C489.73 192.945 493.1 194.13 496.553 194.012C503.68 194.012 506.201 190.153 506.201 186.834C506.278 181.662 501.647 180.556 497.556 179.553Z" fill="black"/>
<path d="M511.422 171.808H519.99V193.806H523.695V171.808H532.237V168.463H511.422V171.808Z" fill="black"/>
<path d="M556.86 182.794C556.86 187.94 554.596 190.513 549.965 190.513C545.334 190.513 543.07 187.94 543.07 182.794V168.463H539.391V182.897C539.391 189.947 543.224 194.012 549.965 194.012C556.706 194.012 560.488 189.947 560.488 182.897V168.463H556.86V182.794Z" fill="black"/>
<path d="M582.461 168.463H571.989V193.806H582.461C590.462 193.806 596.071 188.66 596.071 181.122C596.071 173.583 590.462 168.463 582.461 168.463ZM582.461 190.461H575.823V171.808H582.461C588.481 171.808 592.52 175.539 592.52 181.122C592.546 182.429 592.293 183.727 591.778 184.929C591.264 186.13 590.499 187.209 589.535 188.092C588.572 188.976 587.431 189.644 586.189 190.053C584.947 190.461 583.632 190.6 582.332 190.461H582.461Z" fill="black"/>
<path d="M609.268 168.463H605.563V193.806H609.268V168.463Z" fill="black"/>
<path d="M632.141 168.259C629.617 168.345 627.174 169.172 625.117 170.636C623.06 172.101 621.479 174.139 620.572 176.496C619.665 178.853 619.472 181.424 620.017 183.89C620.562 186.356 621.82 188.607 623.635 190.363C625.451 192.119 627.742 193.301 630.225 193.763C632.708 194.225 635.272 193.946 637.597 192.961C639.922 191.975 641.906 190.328 643.301 188.223C644.696 186.118 645.441 183.649 645.443 181.123C645.444 179.396 645.097 177.687 644.423 176.097C643.75 174.507 642.763 173.069 641.521 171.869C640.28 170.668 638.81 169.73 637.198 169.11C635.587 168.49 633.867 168.2 632.141 168.259ZM632.141 190.591C630.275 190.561 628.46 189.98 626.924 188.921C625.387 187.862 624.197 186.373 623.504 184.641C622.811 182.908 622.646 181.01 623.028 179.183C623.411 177.357 624.325 175.684 625.655 174.376C626.985 173.067 628.672 172.18 630.504 171.827C632.337 171.474 634.232 171.671 635.953 172.392C637.674 173.112 639.144 174.326 640.178 175.879C641.212 177.433 641.763 179.257 641.763 181.123C641.793 182.388 641.562 183.645 641.087 184.817C640.612 185.989 639.901 187.051 639 187.938C638.098 188.825 637.025 189.518 635.845 189.975C634.665 190.431 633.405 190.641 632.141 190.591Z" fill="black"/>
<path d="M715.708 176.402H712.641C712.459 175.519 712.142 174.744 711.688 174.076C711.243 173.408 710.699 172.847 710.056 172.394C709.421 171.932 708.716 171.586 707.94 171.355C707.165 171.124 706.357 171.009 705.516 171.009C703.982 171.009 702.593 171.396 701.348 172.171C700.111 172.946 699.125 174.088 698.391 175.598C697.666 177.107 697.303 178.958 697.303 181.151C697.303 183.345 697.666 185.196 698.391 186.705C699.125 188.214 700.111 189.356 701.348 190.131C702.593 190.906 703.982 191.294 705.516 191.294C706.357 191.294 707.165 191.179 707.94 190.948C708.716 190.717 709.421 190.375 710.056 189.921C710.699 189.459 711.243 188.894 711.688 188.226C712.142 187.55 712.459 186.775 712.641 185.901H715.708C715.477 187.196 715.057 188.354 714.447 189.377C713.836 190.399 713.078 191.269 712.171 191.987C711.264 192.696 710.245 193.236 709.116 193.607C707.994 193.978 706.794 194.164 705.516 194.164C703.356 194.164 701.434 193.636 699.752 192.58C698.07 191.525 696.746 190.024 695.782 188.078C694.817 186.132 694.334 183.823 694.334 181.151C694.334 178.48 694.817 176.171 695.782 174.225C696.746 172.278 698.07 170.778 699.752 169.722C701.434 168.667 703.356 168.139 705.516 168.139C706.794 168.139 707.994 168.324 709.116 168.696C710.245 169.067 711.264 169.611 712.171 170.328C713.078 171.037 713.836 171.903 714.447 172.926C715.057 173.94 715.477 175.099 715.708 176.402Z" fill="black"/>
<path d="M676.718 193.817V168.485H679.785V191.096H691.561V193.817H676.718Z" fill="black"/>
<path d="M657.125 193.817V168.485H660.192V191.096H671.968V193.817H657.125Z" fill="black"/>
<defs>
<clipPath id="clip0_888_613">
<rect width="244.577" height="167.165" fill="white" transform="translate(23.2244 26.8555)"/>
</clipPath>
</defs>
</svg>
